<svg width="32" height="32" viewBox="0 0 32 32" fill="none" xmlns="http://www.w3.org/2000/svg">
<g clip-path="url(#clip0_87_153)">
<path d="M21.3333 13.3333L16 8L10.6667 13.3333V18.2857C10.6667 18.4083 10.6723 18.5298 10.6834 18.65L16 13.3333L21.3166 18.65C21.3277 18.5298 21.3333 18.4083 21.3333 18.2857V13.3333Z" fill="#F58284"/>
<path d="M21.3333 5.33333L17.8856 1.88562C16.8442 0.844218 15.1558 0.84422 14.1144 1.88562L10.6667 5.33333V10.6667L16 5.33333L21.3333 10.6667V5.33333Z" fill="#F58284"/>
<path d="M20.6002 20.6002L16 16L11.3998 20.6002C12.3266 21.9507 14.0398 22.8571 16 22.8571C17.9602 22.8571 19.6734 21.9507 20.6002 20.6002Z" fill="#F58284"/>
<path d="M10.6667 32H21.3333H26.6667C29.6122 32 32 29.9533 32 27.4286V0H24C22.5272 0 21.3333 1.02335 21.3333 2.28571V5.33333V10.6667V13.3333V18.2857C21.3333 18.4083 21.3277 18.5298 21.3166 18.65C21.2516 19.3576 20.9985 20.0199 20.6002 20.6002C19.6734 21.9507 17.9602 22.8571 16 22.8571C14.0398 22.8571 12.3266 21.9507 11.3998 20.6002C11.0015 20.0199 10.7484 19.3576 10.6834 18.65L10.6667 18.6667V18.2857V13.3333V10.6667V5.33333V2.28571C10.6667 1.02335 9.47276 0 8 0H0V27.4286C0 29.9533 2.38781 32 5.33333 32H10.6667Z" fill="#ED2024"/>
</g>
<defs>
<clipPath id="clip0_87_153">
<rect width="32" height="32" fill="white"/>
</clipPath>
</defs>
</svg>
